%TF.GenerationSoftware,KiCad,Pcbnew,9.0.2*%
%TF.CreationDate,2025-07-01T17:28:41-07:00*%
%TF.ProjectId,pathfinder,70617468-6669-46e6-9465-722e6b696361,rev?*%
%TF.SameCoordinates,Original*%
%TF.FileFunction,Copper,L1,Top*%
%TF.FilePolarity,Positive*%
%FSLAX46Y46*%
G04 Gerber Fmt 4.6, Leading zero omitted, Abs format (unit mm)*
G04 Created by KiCad (PCBNEW 9.0.2) date 2025-07-01 17:28:42*
%MOMM*%
%LPD*%
G01*
G04 APERTURE LIST*
%TA.AperFunction,ComponentPad*%
%ADD10C,2.200000*%
%TD*%
%TA.AperFunction,ComponentPad*%
%ADD11C,1.815000*%
%TD*%
%TA.AperFunction,ComponentPad*%
%ADD12R,1.815000X1.815000*%
%TD*%
%TA.AperFunction,ComponentPad*%
%ADD13C,1.400000*%
%TD*%
%TA.AperFunction,ComponentPad*%
%ADD14C,1.524000*%
%TD*%
%TA.AperFunction,ViaPad*%
%ADD15C,0.600000*%
%TD*%
%TA.AperFunction,Conductor*%
%ADD16C,0.200000*%
%TD*%
G04 APERTURE END LIST*
D10*
%TO.P,SW2,1,1*%
%TO.N,button2*%
X119120000Y-127920000D03*
%TO.P,SW2,2,2*%
%TO.N,GND*%
X112770000Y-130460000D03*
%TD*%
D11*
%TO.P,D1,A*%
%TO.N,Net-(D1-PadA)*%
X96040000Y-113000000D03*
D12*
%TO.P,D1,C*%
%TO.N,GND*%
X93500000Y-113000000D03*
%TD*%
D11*
%TO.P,D4,A*%
%TO.N,Net-(D4-PadA)*%
X161270000Y-113000000D03*
D12*
%TO.P,D4,C*%
%TO.N,GND*%
X158730000Y-113000000D03*
%TD*%
D11*
%TO.P,D3,A*%
%TO.N,Net-(D3-PadA)*%
X140540000Y-113000000D03*
D12*
%TO.P,D3,C*%
%TO.N,GND*%
X138000000Y-113000000D03*
%TD*%
D10*
%TO.P,SW3,1,1*%
%TO.N,button3*%
X140850000Y-127960000D03*
%TO.P,SW3,2,2*%
%TO.N,GND*%
X134500000Y-130500000D03*
%TD*%
D11*
%TO.P,D2,A*%
%TO.N,Net-(D2-PadA)*%
X117540000Y-113000000D03*
D12*
%TO.P,D2,C*%
%TO.N,GND*%
X115000000Y-113000000D03*
%TD*%
D10*
%TO.P,SW4,1,1*%
%TO.N,button4*%
X163620000Y-127920000D03*
%TO.P,SW4,2,2*%
%TO.N,GND*%
X157270000Y-130460000D03*
%TD*%
%TO.P,SW1,1,1*%
%TO.N,button1*%
X97120000Y-127920000D03*
%TO.P,SW1,2,2*%
%TO.N,GND*%
X90770000Y-130460000D03*
%TD*%
D13*
%TO.P,R4,1*%
%TO.N,Net-(D4-PadA)*%
X166930000Y-115160000D03*
%TO.P,R4,2*%
%TO.N,led4*%
X166930000Y-110080000D03*
%TD*%
D14*
%TO.P,U1,1,GPIO26/ADC0/A0*%
%TO.N,led4*%
X135200000Y-102800000D03*
%TO.P,U1,2,GPIO27/ADC1/A1*%
%TO.N,button4*%
X132660000Y-102800000D03*
%TO.P,U1,3,GPIO28/ADC2/A2*%
%TO.N,led3*%
X130120000Y-102800000D03*
%TO.P,U1,4,GPIO29/ADC3/A3*%
%TO.N,button3*%
X127580000Y-102800000D03*
%TO.P,U1,5,GPIO6/SDA*%
%TO.N,button2*%
X125040000Y-102800000D03*
%TO.P,U1,6,GPIO7/SCL*%
%TO.N,led2*%
X122500000Y-102800000D03*
%TO.P,U1,7,GPIO0/TX*%
%TO.N,button1*%
X119960000Y-102800000D03*
%TO.P,U1,8,GPIO1/RX*%
%TO.N,led1*%
X119960000Y-87560000D03*
%TO.P,U1,9,GPIO2/SCK*%
%TO.N,unconnected-(U1-GPIO2{slash}SCK-Pad9)*%
X122500000Y-87560000D03*
%TO.P,U1,10,GPIO4/MISO*%
%TO.N,unconnected-(U1-GPIO4{slash}MISO-Pad10)*%
X125040000Y-87560000D03*
%TO.P,U1,11,GPIO3/MOSI*%
%TO.N,unconnected-(U1-GPIO3{slash}MOSI-Pad11)*%
X127580000Y-87560000D03*
%TO.P,U1,12,3V3*%
%TO.N,unconnected-(U1-3V3-Pad12)*%
X130120000Y-87560000D03*
%TO.P,U1,13,GND*%
%TO.N,GND*%
X132660000Y-87560000D03*
%TO.P,U1,14,VBUS*%
%TO.N,unconnected-(U1-VBUS-Pad14)*%
X135200000Y-87560000D03*
%TD*%
D13*
%TO.P,R1,1*%
%TO.N,Net-(D1-PadA)*%
X101000000Y-113080000D03*
%TO.P,R1,2*%
%TO.N,led1*%
X101000000Y-108000000D03*
%TD*%
%TO.P,R3,1*%
%TO.N,Net-(D3-PadA)*%
X145000000Y-113040000D03*
%TO.P,R3,2*%
%TO.N,led3*%
X145000000Y-107960000D03*
%TD*%
%TO.P,R2,1*%
%TO.N,Net-(D2-PadA)*%
X122500000Y-113000000D03*
%TO.P,R2,2*%
%TO.N,led2*%
X122500000Y-107920000D03*
%TD*%
D15*
%TO.N,GND*%
X158800000Y-118390000D03*
X93510000Y-118390000D03*
X128520000Y-118390000D03*
X153400000Y-118390000D03*
X84890000Y-118390000D03*
X112780000Y-118390000D03*
X138100000Y-118390000D03*
X170710000Y-118390000D03*
X115000000Y-118390000D03*
%TD*%
D16*
%TO.N,Net-(D1-PadA)*%
X100920000Y-113000000D02*
X101000000Y-113080000D01*
%TO.N,GND*%
X112780000Y-118390000D02*
X115000000Y-118390000D01*
X90770000Y-130460000D02*
X91000000Y-130230000D01*
X138100000Y-118390000D02*
X153400000Y-118390000D01*
X128520000Y-118390000D02*
X138100000Y-118390000D01*
X93510000Y-118390000D02*
X112780000Y-118390000D01*
X153400000Y-118390000D02*
X158800000Y-118390000D01*
X90810000Y-118390000D02*
X93510000Y-118390000D01*
X90810000Y-118390000D02*
X84890000Y-118390000D01*
X158800000Y-118390000D02*
X170710000Y-118390000D01*
X115000000Y-118390000D02*
X128520000Y-118390000D01*
%TO.N,Net-(D3-PadA)*%
X144960000Y-113000000D02*
X145000000Y-113040000D01*
%TO.N,Net-(D4-PadA)*%
X166850000Y-115080000D02*
X166930000Y-115160000D01*
%TO.N,led2*%
X122500000Y-107920000D02*
X122763500Y-107920000D01*
%TO.N,led4*%
X134848500Y-103233626D02*
X134848500Y-102620000D01*
X166930000Y-110080000D02*
X166430000Y-110080000D01*
%TD*%
M02*
