%TF.GenerationSoftware,KiCad,Pcbnew,9.0.2*%
%TF.CreationDate,2025-07-01T17:28:42-07:00*%
%TF.ProjectId,pathfinder,70617468-6669-46e6-9465-722e6b696361,rev?*%
%TF.SameCoordinates,Original*%
%TF.FileFunction,Legend,Bot*%
%TF.FilePolarity,Positive*%
%FSLAX46Y46*%
G04 Gerber Fmt 4.6, Leading zero omitted, Abs format (unit mm)*
G04 Created by KiCad (PCBNEW 9.0.2) date 2025-07-01 17:28:42*
%MOMM*%
%LPD*%
G01*
G04 APERTURE LIST*
%ADD10C,0.120000*%
%ADD11C,0.127000*%
%ADD12C,0.100000*%
%ADD13C,0.504000*%
G04 APERTURE END LIST*
D10*
%TO.C,R4*%
X166010000Y-114540000D02*
X166010000Y-110700000D01*
X167850000Y-114540000D02*
X167850000Y-110700000D01*
D11*
%TO.C,U1*%
X117166000Y-102165000D02*
X117166000Y-88195000D01*
X119071000Y-86290000D02*
X136216000Y-86290000D01*
X119071000Y-104070000D02*
X136216000Y-104070000D01*
D12*
X138121000Y-88195000D02*
X138121000Y-102165000D01*
D11*
X138121000Y-88195000D02*
X138121000Y-102165000D01*
X138121000Y-99675000D02*
X139031272Y-99671272D01*
X139031000Y-90676000D02*
X138121000Y-90676000D01*
X139531000Y-99171272D02*
X139531000Y-91176000D01*
X117166000Y-88195000D02*
G75*
G02*
X119071000Y-86290000I1905000J0D01*
G01*
X119071000Y-104070000D02*
G75*
G02*
X117166000Y-102165000I1J1905001D01*
G01*
X136216000Y-86290000D02*
G75*
G02*
X138121000Y-88195000I0J-1905000D01*
G01*
X138121000Y-102165000D02*
G75*
G02*
X136216000Y-104070000I-1905001J1D01*
G01*
X139031000Y-90676000D02*
G75*
G02*
X139531000Y-91176000I0J-500000D01*
G01*
X139531000Y-99171272D02*
G75*
G02*
X139031272Y-99671273I-500019J18D01*
G01*
D13*
X137252000Y-102987000D02*
G75*
G02*
X136748000Y-102987000I-252000J0D01*
G01*
X136748000Y-102987000D02*
G75*
G02*
X137252000Y-102987000I252000J0D01*
G01*
X138132000Y-104130000D02*
G75*
G02*
X137628000Y-104130000I-252000J0D01*
G01*
X137628000Y-104130000D02*
G75*
G02*
X138132000Y-104130000I252000J0D01*
G01*
D10*
%TO.C,R1*%
X100080000Y-112460000D02*
X100080000Y-108620000D01*
X101920000Y-112460000D02*
X101920000Y-108620000D01*
%TO.C,R3*%
X144080000Y-112420000D02*
X144080000Y-108580000D01*
X145920000Y-112420000D02*
X145920000Y-108580000D01*
%TO.C,R2*%
X121580000Y-112380000D02*
X121580000Y-108540000D01*
X123420000Y-112380000D02*
X123420000Y-108540000D01*
%TD*%
M02*
