%TF.GenerationSoftware,KiCad,Pcbnew,9.0.2*%
%TF.CreationDate,2025-07-01T17:28:42-07:00*%
%TF.ProjectId,pathfinder,70617468-6669-46e6-9465-722e6b696361,rev?*%
%TF.SameCoordinates,Original*%
%TF.FileFunction,Legend,Top*%
%TF.FilePolarity,Positive*%
%FSLAX46Y46*%
G04 Gerber Fmt 4.6, Leading zero omitted, Abs format (unit mm)*
G04 Created by KiCad (PCBNEW 9.0.2) date 2025-07-01 17:28:42*
%MOMM*%
%LPD*%
G01*
G04 APERTURE LIST*
%ADD10C,0.125000*%
%ADD11C,0.200000*%
%ADD12C,0.500000*%
%ADD13C,0.120000*%
%ADD14C,0.127000*%
G04 APERTURE END LIST*
D10*
X92512712Y-122843500D02*
X92655569Y-122891119D01*
X92655569Y-122891119D02*
X92893664Y-122891119D01*
X92893664Y-122891119D02*
X92988902Y-122843500D01*
X92988902Y-122843500D02*
X93036521Y-122795880D01*
X93036521Y-122795880D02*
X93084140Y-122700642D01*
X93084140Y-122700642D02*
X93084140Y-122605404D01*
X93084140Y-122605404D02*
X93036521Y-122510166D01*
X93036521Y-122510166D02*
X92988902Y-122462547D01*
X92988902Y-122462547D02*
X92893664Y-122414928D01*
X92893664Y-122414928D02*
X92703188Y-122367309D01*
X92703188Y-122367309D02*
X92607950Y-122319690D01*
X92607950Y-122319690D02*
X92560331Y-122272071D01*
X92560331Y-122272071D02*
X92512712Y-122176833D01*
X92512712Y-122176833D02*
X92512712Y-122081595D01*
X92512712Y-122081595D02*
X92560331Y-121986357D01*
X92560331Y-121986357D02*
X92607950Y-121938738D01*
X92607950Y-121938738D02*
X92703188Y-121891119D01*
X92703188Y-121891119D02*
X92941283Y-121891119D01*
X92941283Y-121891119D02*
X93084140Y-121938738D01*
X93369855Y-122224452D02*
X93750807Y-122224452D01*
X93512712Y-121891119D02*
X93512712Y-122748261D01*
X93512712Y-122748261D02*
X93560331Y-122843500D01*
X93560331Y-122843500D02*
X93655569Y-122891119D01*
X93655569Y-122891119D02*
X93750807Y-122891119D01*
X94512712Y-122891119D02*
X94512712Y-122367309D01*
X94512712Y-122367309D02*
X94465093Y-122272071D01*
X94465093Y-122272071D02*
X94369855Y-122224452D01*
X94369855Y-122224452D02*
X94179379Y-122224452D01*
X94179379Y-122224452D02*
X94084141Y-122272071D01*
X94512712Y-122843500D02*
X94417474Y-122891119D01*
X94417474Y-122891119D02*
X94179379Y-122891119D01*
X94179379Y-122891119D02*
X94084141Y-122843500D01*
X94084141Y-122843500D02*
X94036522Y-122748261D01*
X94036522Y-122748261D02*
X94036522Y-122653023D01*
X94036522Y-122653023D02*
X94084141Y-122557785D01*
X94084141Y-122557785D02*
X94179379Y-122510166D01*
X94179379Y-122510166D02*
X94417474Y-122510166D01*
X94417474Y-122510166D02*
X94512712Y-122462547D01*
X94988903Y-122891119D02*
X94988903Y-122224452D01*
X94988903Y-122414928D02*
X95036522Y-122319690D01*
X95036522Y-122319690D02*
X95084141Y-122272071D01*
X95084141Y-122272071D02*
X95179379Y-122224452D01*
X95179379Y-122224452D02*
X95274617Y-122224452D01*
X95465094Y-122224452D02*
X95846046Y-122224452D01*
X95607951Y-121891119D02*
X95607951Y-122748261D01*
X95607951Y-122748261D02*
X95655570Y-122843500D01*
X95655570Y-122843500D02*
X95750808Y-122891119D01*
X95750808Y-122891119D02*
X95846046Y-122891119D01*
D11*
X165021101Y-113231980D02*
X164973482Y-113279600D01*
X164973482Y-113279600D02*
X164830625Y-113327219D01*
X164830625Y-113327219D02*
X164735387Y-113327219D01*
X164735387Y-113327219D02*
X164592530Y-113279600D01*
X164592530Y-113279600D02*
X164497292Y-113184361D01*
X164497292Y-113184361D02*
X164449673Y-113089123D01*
X164449673Y-113089123D02*
X164402054Y-112898647D01*
X164402054Y-112898647D02*
X164402054Y-112755790D01*
X164402054Y-112755790D02*
X164449673Y-112565314D01*
X164449673Y-112565314D02*
X164497292Y-112470076D01*
X164497292Y-112470076D02*
X164592530Y-112374838D01*
X164592530Y-112374838D02*
X164735387Y-112327219D01*
X164735387Y-112327219D02*
X164830625Y-112327219D01*
X164830625Y-112327219D02*
X164973482Y-112374838D01*
X164973482Y-112374838D02*
X165021101Y-112422457D01*
X165592530Y-113327219D02*
X165497292Y-113279600D01*
X165497292Y-113279600D02*
X165449673Y-113231980D01*
X165449673Y-113231980D02*
X165402054Y-113136742D01*
X165402054Y-113136742D02*
X165402054Y-112851028D01*
X165402054Y-112851028D02*
X165449673Y-112755790D01*
X165449673Y-112755790D02*
X165497292Y-112708171D01*
X165497292Y-112708171D02*
X165592530Y-112660552D01*
X165592530Y-112660552D02*
X165735387Y-112660552D01*
X165735387Y-112660552D02*
X165830625Y-112708171D01*
X165830625Y-112708171D02*
X165878244Y-112755790D01*
X165878244Y-112755790D02*
X165925863Y-112851028D01*
X165925863Y-112851028D02*
X165925863Y-113136742D01*
X165925863Y-113136742D02*
X165878244Y-113231980D01*
X165878244Y-113231980D02*
X165830625Y-113279600D01*
X165830625Y-113279600D02*
X165735387Y-113327219D01*
X165735387Y-113327219D02*
X165592530Y-113327219D01*
X166354435Y-113327219D02*
X166354435Y-112660552D01*
X166354435Y-112851028D02*
X166402054Y-112755790D01*
X166402054Y-112755790D02*
X166449673Y-112708171D01*
X166449673Y-112708171D02*
X166544911Y-112660552D01*
X166544911Y-112660552D02*
X166640149Y-112660552D01*
X166973483Y-113327219D02*
X166973483Y-112660552D01*
X166973483Y-112851028D02*
X167021102Y-112755790D01*
X167021102Y-112755790D02*
X167068721Y-112708171D01*
X167068721Y-112708171D02*
X167163959Y-112660552D01*
X167163959Y-112660552D02*
X167259197Y-112660552D01*
X167973483Y-113279600D02*
X167878245Y-113327219D01*
X167878245Y-113327219D02*
X167687769Y-113327219D01*
X167687769Y-113327219D02*
X167592531Y-113279600D01*
X167592531Y-113279600D02*
X167544912Y-113184361D01*
X167544912Y-113184361D02*
X167544912Y-112803409D01*
X167544912Y-112803409D02*
X167592531Y-112708171D01*
X167592531Y-112708171D02*
X167687769Y-112660552D01*
X167687769Y-112660552D02*
X167878245Y-112660552D01*
X167878245Y-112660552D02*
X167973483Y-112708171D01*
X167973483Y-112708171D02*
X168021102Y-112803409D01*
X168021102Y-112803409D02*
X168021102Y-112898647D01*
X168021102Y-112898647D02*
X167544912Y-112993885D01*
X168878245Y-113279600D02*
X168783007Y-113327219D01*
X168783007Y-113327219D02*
X168592531Y-113327219D01*
X168592531Y-113327219D02*
X168497293Y-113279600D01*
X168497293Y-113279600D02*
X168449674Y-113231980D01*
X168449674Y-113231980D02*
X168402055Y-113136742D01*
X168402055Y-113136742D02*
X168402055Y-112851028D01*
X168402055Y-112851028D02*
X168449674Y-112755790D01*
X168449674Y-112755790D02*
X168497293Y-112708171D01*
X168497293Y-112708171D02*
X168592531Y-112660552D01*
X168592531Y-112660552D02*
X168783007Y-112660552D01*
X168783007Y-112660552D02*
X168878245Y-112708171D01*
X169163960Y-112660552D02*
X169544912Y-112660552D01*
X169306817Y-112327219D02*
X169306817Y-113184361D01*
X169306817Y-113184361D02*
X169354436Y-113279600D01*
X169354436Y-113279600D02*
X169449674Y-113327219D01*
X169449674Y-113327219D02*
X169544912Y-113327219D01*
X169878246Y-113231980D02*
X169925865Y-113279600D01*
X169925865Y-113279600D02*
X169878246Y-113327219D01*
X169878246Y-113327219D02*
X169830627Y-113279600D01*
X169830627Y-113279600D02*
X169878246Y-113231980D01*
X169878246Y-113231980D02*
X169878246Y-113327219D01*
X169878246Y-112946266D02*
X169830627Y-112374838D01*
X169830627Y-112374838D02*
X169878246Y-112327219D01*
X169878246Y-112327219D02*
X169925865Y-112374838D01*
X169925865Y-112374838D02*
X169878246Y-112946266D01*
X169878246Y-112946266D02*
X169878246Y-112327219D01*
X85884435Y-112387219D02*
X86122530Y-113387219D01*
X86122530Y-113387219D02*
X86313006Y-112672933D01*
X86313006Y-112672933D02*
X86503482Y-113387219D01*
X86503482Y-113387219D02*
X86741578Y-112387219D01*
X87122530Y-113387219D02*
X87122530Y-112720552D01*
X87122530Y-112911028D02*
X87170149Y-112815790D01*
X87170149Y-112815790D02*
X87217768Y-112768171D01*
X87217768Y-112768171D02*
X87313006Y-112720552D01*
X87313006Y-112720552D02*
X87408244Y-112720552D01*
X87884435Y-113387219D02*
X87789197Y-113339600D01*
X87789197Y-113339600D02*
X87741578Y-113291980D01*
X87741578Y-113291980D02*
X87693959Y-113196742D01*
X87693959Y-113196742D02*
X87693959Y-112911028D01*
X87693959Y-112911028D02*
X87741578Y-112815790D01*
X87741578Y-112815790D02*
X87789197Y-112768171D01*
X87789197Y-112768171D02*
X87884435Y-112720552D01*
X87884435Y-112720552D02*
X88027292Y-112720552D01*
X88027292Y-112720552D02*
X88122530Y-112768171D01*
X88122530Y-112768171D02*
X88170149Y-112815790D01*
X88170149Y-112815790D02*
X88217768Y-112911028D01*
X88217768Y-112911028D02*
X88217768Y-113196742D01*
X88217768Y-113196742D02*
X88170149Y-113291980D01*
X88170149Y-113291980D02*
X88122530Y-113339600D01*
X88122530Y-113339600D02*
X88027292Y-113387219D01*
X88027292Y-113387219D02*
X87884435Y-113387219D01*
X88646340Y-112720552D02*
X88646340Y-113387219D01*
X88646340Y-112815790D02*
X88693959Y-112768171D01*
X88693959Y-112768171D02*
X88789197Y-112720552D01*
X88789197Y-112720552D02*
X88932054Y-112720552D01*
X88932054Y-112720552D02*
X89027292Y-112768171D01*
X89027292Y-112768171D02*
X89074911Y-112863409D01*
X89074911Y-112863409D02*
X89074911Y-113387219D01*
X89979673Y-112720552D02*
X89979673Y-113530076D01*
X89979673Y-113530076D02*
X89932054Y-113625314D01*
X89932054Y-113625314D02*
X89884435Y-113672933D01*
X89884435Y-113672933D02*
X89789197Y-113720552D01*
X89789197Y-113720552D02*
X89646340Y-113720552D01*
X89646340Y-113720552D02*
X89551102Y-113672933D01*
X89979673Y-113339600D02*
X89884435Y-113387219D01*
X89884435Y-113387219D02*
X89693959Y-113387219D01*
X89693959Y-113387219D02*
X89598721Y-113339600D01*
X89598721Y-113339600D02*
X89551102Y-113291980D01*
X89551102Y-113291980D02*
X89503483Y-113196742D01*
X89503483Y-113196742D02*
X89503483Y-112911028D01*
X89503483Y-112911028D02*
X89551102Y-112815790D01*
X89551102Y-112815790D02*
X89598721Y-112768171D01*
X89598721Y-112768171D02*
X89693959Y-112720552D01*
X89693959Y-112720552D02*
X89884435Y-112720552D01*
X89884435Y-112720552D02*
X89979673Y-112768171D01*
X90455864Y-113291980D02*
X90503483Y-113339600D01*
X90503483Y-113339600D02*
X90455864Y-113387219D01*
X90455864Y-113387219D02*
X90408245Y-113339600D01*
X90408245Y-113339600D02*
X90455864Y-113291980D01*
X90455864Y-113291980D02*
X90455864Y-113387219D01*
X90455864Y-113006266D02*
X90408245Y-112434838D01*
X90408245Y-112434838D02*
X90455864Y-112387219D01*
X90455864Y-112387219D02*
X90503483Y-112434838D01*
X90503483Y-112434838D02*
X90455864Y-113006266D01*
X90455864Y-113006266D02*
X90455864Y-112387219D01*
D12*
X118870000Y-94083187D02*
X118870000Y-91583187D01*
X118870000Y-91583187D02*
X119703333Y-93368901D01*
X119703333Y-93368901D02*
X120536666Y-91583187D01*
X120536666Y-91583187D02*
X120536666Y-94083187D01*
X122798571Y-94083187D02*
X122798571Y-92773663D01*
X122798571Y-92773663D02*
X122679524Y-92535568D01*
X122679524Y-92535568D02*
X122441428Y-92416520D01*
X122441428Y-92416520D02*
X121965238Y-92416520D01*
X121965238Y-92416520D02*
X121727143Y-92535568D01*
X122798571Y-93964140D02*
X122560476Y-94083187D01*
X122560476Y-94083187D02*
X121965238Y-94083187D01*
X121965238Y-94083187D02*
X121727143Y-93964140D01*
X121727143Y-93964140D02*
X121608095Y-93726044D01*
X121608095Y-93726044D02*
X121608095Y-93487949D01*
X121608095Y-93487949D02*
X121727143Y-93249854D01*
X121727143Y-93249854D02*
X121965238Y-93130806D01*
X121965238Y-93130806D02*
X122560476Y-93130806D01*
X122560476Y-93130806D02*
X122798571Y-93011759D01*
X123631905Y-92416520D02*
X124584286Y-92416520D01*
X123989048Y-91583187D02*
X123989048Y-93726044D01*
X123989048Y-93726044D02*
X124108095Y-93964140D01*
X124108095Y-93964140D02*
X124346190Y-94083187D01*
X124346190Y-94083187D02*
X124584286Y-94083187D01*
X126489047Y-93964140D02*
X126250952Y-94083187D01*
X126250952Y-94083187D02*
X125774761Y-94083187D01*
X125774761Y-94083187D02*
X125536666Y-93964140D01*
X125536666Y-93964140D02*
X125417619Y-93845092D01*
X125417619Y-93845092D02*
X125298571Y-93606997D01*
X125298571Y-93606997D02*
X125298571Y-92892711D01*
X125298571Y-92892711D02*
X125417619Y-92654616D01*
X125417619Y-92654616D02*
X125536666Y-92535568D01*
X125536666Y-92535568D02*
X125774761Y-92416520D01*
X125774761Y-92416520D02*
X126250952Y-92416520D01*
X126250952Y-92416520D02*
X126489047Y-92535568D01*
X127560476Y-94083187D02*
X127560476Y-91583187D01*
X128631904Y-94083187D02*
X128631904Y-92773663D01*
X128631904Y-92773663D02*
X128512857Y-92535568D01*
X128512857Y-92535568D02*
X128274761Y-92416520D01*
X128274761Y-92416520D02*
X127917618Y-92416520D01*
X127917618Y-92416520D02*
X127679523Y-92535568D01*
X127679523Y-92535568D02*
X127560476Y-92654616D01*
X131370000Y-92416520D02*
X132322381Y-92416520D01*
X131727143Y-91583187D02*
X131727143Y-93726044D01*
X131727143Y-93726044D02*
X131846190Y-93964140D01*
X131846190Y-93964140D02*
X132084285Y-94083187D01*
X132084285Y-94083187D02*
X132322381Y-94083187D01*
X133155714Y-94083187D02*
X133155714Y-91583187D01*
X134227142Y-94083187D02*
X134227142Y-92773663D01*
X134227142Y-92773663D02*
X134108095Y-92535568D01*
X134108095Y-92535568D02*
X133869999Y-92416520D01*
X133869999Y-92416520D02*
X133512856Y-92416520D01*
X133512856Y-92416520D02*
X133274761Y-92535568D01*
X133274761Y-92535568D02*
X133155714Y-92654616D01*
X136370000Y-93964140D02*
X136131904Y-94083187D01*
X136131904Y-94083187D02*
X135655714Y-94083187D01*
X135655714Y-94083187D02*
X135417619Y-93964140D01*
X135417619Y-93964140D02*
X135298571Y-93726044D01*
X135298571Y-93726044D02*
X135298571Y-92773663D01*
X135298571Y-92773663D02*
X135417619Y-92535568D01*
X135417619Y-92535568D02*
X135655714Y-92416520D01*
X135655714Y-92416520D02*
X136131904Y-92416520D01*
X136131904Y-92416520D02*
X136370000Y-92535568D01*
X136370000Y-92535568D02*
X136489047Y-92773663D01*
X136489047Y-92773663D02*
X136489047Y-93011759D01*
X136489047Y-93011759D02*
X135298571Y-93249854D01*
X120953334Y-96441380D02*
X120953334Y-98941380D01*
X120953334Y-96560428D02*
X121191429Y-96441380D01*
X121191429Y-96441380D02*
X121667619Y-96441380D01*
X121667619Y-96441380D02*
X121905715Y-96560428D01*
X121905715Y-96560428D02*
X122024762Y-96679476D01*
X122024762Y-96679476D02*
X122143810Y-96917571D01*
X122143810Y-96917571D02*
X122143810Y-97631857D01*
X122143810Y-97631857D02*
X122024762Y-97869952D01*
X122024762Y-97869952D02*
X121905715Y-97989000D01*
X121905715Y-97989000D02*
X121667619Y-98108047D01*
X121667619Y-98108047D02*
X121191429Y-98108047D01*
X121191429Y-98108047D02*
X120953334Y-97989000D01*
X124286667Y-98108047D02*
X124286667Y-96798523D01*
X124286667Y-96798523D02*
X124167620Y-96560428D01*
X124167620Y-96560428D02*
X123929524Y-96441380D01*
X123929524Y-96441380D02*
X123453334Y-96441380D01*
X123453334Y-96441380D02*
X123215239Y-96560428D01*
X124286667Y-97989000D02*
X124048572Y-98108047D01*
X124048572Y-98108047D02*
X123453334Y-98108047D01*
X123453334Y-98108047D02*
X123215239Y-97989000D01*
X123215239Y-97989000D02*
X123096191Y-97750904D01*
X123096191Y-97750904D02*
X123096191Y-97512809D01*
X123096191Y-97512809D02*
X123215239Y-97274714D01*
X123215239Y-97274714D02*
X123453334Y-97155666D01*
X123453334Y-97155666D02*
X124048572Y-97155666D01*
X124048572Y-97155666D02*
X124286667Y-97036619D01*
X125120001Y-96441380D02*
X126072382Y-96441380D01*
X125477144Y-95608047D02*
X125477144Y-97750904D01*
X125477144Y-97750904D02*
X125596191Y-97989000D01*
X125596191Y-97989000D02*
X125834286Y-98108047D01*
X125834286Y-98108047D02*
X126072382Y-98108047D01*
X126548572Y-96441380D02*
X127500953Y-96441380D01*
X126905715Y-95608047D02*
X126905715Y-97750904D01*
X126905715Y-97750904D02*
X127024762Y-97989000D01*
X127024762Y-97989000D02*
X127262857Y-98108047D01*
X127262857Y-98108047D02*
X127500953Y-98108047D01*
X129286667Y-97989000D02*
X129048571Y-98108047D01*
X129048571Y-98108047D02*
X128572381Y-98108047D01*
X128572381Y-98108047D02*
X128334286Y-97989000D01*
X128334286Y-97989000D02*
X128215238Y-97750904D01*
X128215238Y-97750904D02*
X128215238Y-96798523D01*
X128215238Y-96798523D02*
X128334286Y-96560428D01*
X128334286Y-96560428D02*
X128572381Y-96441380D01*
X128572381Y-96441380D02*
X129048571Y-96441380D01*
X129048571Y-96441380D02*
X129286667Y-96560428D01*
X129286667Y-96560428D02*
X129405714Y-96798523D01*
X129405714Y-96798523D02*
X129405714Y-97036619D01*
X129405714Y-97036619D02*
X128215238Y-97274714D01*
X130477143Y-98108047D02*
X130477143Y-96441380D01*
X130477143Y-96917571D02*
X130596190Y-96679476D01*
X130596190Y-96679476D02*
X130715238Y-96560428D01*
X130715238Y-96560428D02*
X130953333Y-96441380D01*
X130953333Y-96441380D02*
X131191428Y-96441380D01*
X132024762Y-96441380D02*
X132024762Y-98108047D01*
X132024762Y-96679476D02*
X132143809Y-96560428D01*
X132143809Y-96560428D02*
X132381904Y-96441380D01*
X132381904Y-96441380D02*
X132739047Y-96441380D01*
X132739047Y-96441380D02*
X132977143Y-96560428D01*
X132977143Y-96560428D02*
X133096190Y-96798523D01*
X133096190Y-96798523D02*
X133096190Y-98108047D01*
X134286667Y-97869952D02*
X134405714Y-97989000D01*
X134405714Y-97989000D02*
X134286667Y-98108047D01*
X134286667Y-98108047D02*
X134167619Y-97989000D01*
X134167619Y-97989000D02*
X134286667Y-97869952D01*
X134286667Y-97869952D02*
X134286667Y-98108047D01*
X134286667Y-97155666D02*
X134167619Y-95727095D01*
X134167619Y-95727095D02*
X134286667Y-95608047D01*
X134286667Y-95608047D02*
X134405714Y-95727095D01*
X134405714Y-95727095D02*
X134286667Y-97155666D01*
X134286667Y-97155666D02*
X134286667Y-95608047D01*
X94480952Y-91583187D02*
X95076190Y-94083187D01*
X95076190Y-94083187D02*
X95552381Y-92297473D01*
X95552381Y-92297473D02*
X96028571Y-94083187D01*
X96028571Y-94083187D02*
X96623810Y-91583187D01*
X98647619Y-94083187D02*
X98647619Y-92773663D01*
X98647619Y-92773663D02*
X98528572Y-92535568D01*
X98528572Y-92535568D02*
X98290476Y-92416520D01*
X98290476Y-92416520D02*
X97814286Y-92416520D01*
X97814286Y-92416520D02*
X97576191Y-92535568D01*
X98647619Y-93964140D02*
X98409524Y-94083187D01*
X98409524Y-94083187D02*
X97814286Y-94083187D01*
X97814286Y-94083187D02*
X97576191Y-93964140D01*
X97576191Y-93964140D02*
X97457143Y-93726044D01*
X97457143Y-93726044D02*
X97457143Y-93487949D01*
X97457143Y-93487949D02*
X97576191Y-93249854D01*
X97576191Y-93249854D02*
X97814286Y-93130806D01*
X97814286Y-93130806D02*
X98409524Y-93130806D01*
X98409524Y-93130806D02*
X98647619Y-93011759D01*
X99480953Y-92416520D02*
X100433334Y-92416520D01*
X99838096Y-91583187D02*
X99838096Y-93726044D01*
X99838096Y-93726044D02*
X99957143Y-93964140D01*
X99957143Y-93964140D02*
X100195238Y-94083187D01*
X100195238Y-94083187D02*
X100433334Y-94083187D01*
X102338095Y-93964140D02*
X102100000Y-94083187D01*
X102100000Y-94083187D02*
X101623809Y-94083187D01*
X101623809Y-94083187D02*
X101385714Y-93964140D01*
X101385714Y-93964140D02*
X101266667Y-93845092D01*
X101266667Y-93845092D02*
X101147619Y-93606997D01*
X101147619Y-93606997D02*
X101147619Y-92892711D01*
X101147619Y-92892711D02*
X101266667Y-92654616D01*
X101266667Y-92654616D02*
X101385714Y-92535568D01*
X101385714Y-92535568D02*
X101623809Y-92416520D01*
X101623809Y-92416520D02*
X102100000Y-92416520D01*
X102100000Y-92416520D02*
X102338095Y-92535568D01*
X103409524Y-94083187D02*
X103409524Y-91583187D01*
X104480952Y-94083187D02*
X104480952Y-92773663D01*
X104480952Y-92773663D02*
X104361905Y-92535568D01*
X104361905Y-92535568D02*
X104123809Y-92416520D01*
X104123809Y-92416520D02*
X103766666Y-92416520D01*
X103766666Y-92416520D02*
X103528571Y-92535568D01*
X103528571Y-92535568D02*
X103409524Y-92654616D01*
X92516666Y-97989000D02*
X92278571Y-98108047D01*
X92278571Y-98108047D02*
X91802380Y-98108047D01*
X91802380Y-98108047D02*
X91564285Y-97989000D01*
X91564285Y-97989000D02*
X91445238Y-97869952D01*
X91445238Y-97869952D02*
X91326190Y-97631857D01*
X91326190Y-97631857D02*
X91326190Y-96917571D01*
X91326190Y-96917571D02*
X91445238Y-96679476D01*
X91445238Y-96679476D02*
X91564285Y-96560428D01*
X91564285Y-96560428D02*
X91802380Y-96441380D01*
X91802380Y-96441380D02*
X92278571Y-96441380D01*
X92278571Y-96441380D02*
X92516666Y-96560428D01*
X94659523Y-98108047D02*
X94659523Y-96798523D01*
X94659523Y-96798523D02*
X94540476Y-96560428D01*
X94540476Y-96560428D02*
X94302380Y-96441380D01*
X94302380Y-96441380D02*
X93826190Y-96441380D01*
X93826190Y-96441380D02*
X93588095Y-96560428D01*
X94659523Y-97989000D02*
X94421428Y-98108047D01*
X94421428Y-98108047D02*
X93826190Y-98108047D01*
X93826190Y-98108047D02*
X93588095Y-97989000D01*
X93588095Y-97989000D02*
X93469047Y-97750904D01*
X93469047Y-97750904D02*
X93469047Y-97512809D01*
X93469047Y-97512809D02*
X93588095Y-97274714D01*
X93588095Y-97274714D02*
X93826190Y-97155666D01*
X93826190Y-97155666D02*
X94421428Y-97155666D01*
X94421428Y-97155666D02*
X94659523Y-97036619D01*
X95850000Y-98108047D02*
X95850000Y-96441380D01*
X95850000Y-96917571D02*
X95969047Y-96679476D01*
X95969047Y-96679476D02*
X96088095Y-96560428D01*
X96088095Y-96560428D02*
X96326190Y-96441380D01*
X96326190Y-96441380D02*
X96564285Y-96441380D01*
X98350000Y-97989000D02*
X98111904Y-98108047D01*
X98111904Y-98108047D02*
X97635714Y-98108047D01*
X97635714Y-98108047D02*
X97397619Y-97989000D01*
X97397619Y-97989000D02*
X97278571Y-97750904D01*
X97278571Y-97750904D02*
X97278571Y-96798523D01*
X97278571Y-96798523D02*
X97397619Y-96560428D01*
X97397619Y-96560428D02*
X97635714Y-96441380D01*
X97635714Y-96441380D02*
X98111904Y-96441380D01*
X98111904Y-96441380D02*
X98350000Y-96560428D01*
X98350000Y-96560428D02*
X98469047Y-96798523D01*
X98469047Y-96798523D02*
X98469047Y-97036619D01*
X98469047Y-97036619D02*
X97278571Y-97274714D01*
X99183333Y-96441380D02*
X100135714Y-96441380D01*
X99540476Y-98108047D02*
X99540476Y-95965190D01*
X99540476Y-95965190D02*
X99659523Y-95727095D01*
X99659523Y-95727095D02*
X99897618Y-95608047D01*
X99897618Y-95608047D02*
X100135714Y-95608047D01*
X102040475Y-96441380D02*
X102040475Y-98108047D01*
X100969047Y-96441380D02*
X100969047Y-97750904D01*
X100969047Y-97750904D02*
X101088094Y-97989000D01*
X101088094Y-97989000D02*
X101326189Y-98108047D01*
X101326189Y-98108047D02*
X101683332Y-98108047D01*
X101683332Y-98108047D02*
X101921428Y-97989000D01*
X101921428Y-97989000D02*
X102040475Y-97869952D01*
X103588094Y-98108047D02*
X103349999Y-97989000D01*
X103349999Y-97989000D02*
X103230952Y-97750904D01*
X103230952Y-97750904D02*
X103230952Y-95608047D01*
X104897618Y-98108047D02*
X104659523Y-97989000D01*
X104659523Y-97989000D02*
X104540476Y-97750904D01*
X104540476Y-97750904D02*
X104540476Y-95608047D01*
X105611904Y-96441380D02*
X106207142Y-98108047D01*
X106802381Y-96441380D02*
X106207142Y-98108047D01*
X106207142Y-98108047D02*
X105969047Y-98703285D01*
X105969047Y-98703285D02*
X105850000Y-98822333D01*
X105850000Y-98822333D02*
X105611904Y-98941380D01*
X107754762Y-97869952D02*
X107873809Y-97989000D01*
X107873809Y-97989000D02*
X107754762Y-98108047D01*
X107754762Y-98108047D02*
X107635714Y-97989000D01*
X107635714Y-97989000D02*
X107754762Y-97869952D01*
X107754762Y-97869952D02*
X107754762Y-98108047D01*
X107754762Y-97155666D02*
X107635714Y-95727095D01*
X107635714Y-95727095D02*
X107754762Y-95608047D01*
X107754762Y-95608047D02*
X107873809Y-95727095D01*
X107873809Y-95727095D02*
X107754762Y-97155666D01*
X107754762Y-97155666D02*
X107754762Y-95608047D01*
X148857619Y-91783187D02*
X150286190Y-91783187D01*
X149571904Y-94283187D02*
X149571904Y-91783187D01*
X152071905Y-94164140D02*
X151833809Y-94283187D01*
X151833809Y-94283187D02*
X151357619Y-94283187D01*
X151357619Y-94283187D02*
X151119524Y-94164140D01*
X151119524Y-94164140D02*
X151000476Y-93926044D01*
X151000476Y-93926044D02*
X151000476Y-92973663D01*
X151000476Y-92973663D02*
X151119524Y-92735568D01*
X151119524Y-92735568D02*
X151357619Y-92616520D01*
X151357619Y-92616520D02*
X151833809Y-92616520D01*
X151833809Y-92616520D02*
X152071905Y-92735568D01*
X152071905Y-92735568D02*
X152190952Y-92973663D01*
X152190952Y-92973663D02*
X152190952Y-93211759D01*
X152190952Y-93211759D02*
X151000476Y-93449854D01*
X153143333Y-94164140D02*
X153381428Y-94283187D01*
X153381428Y-94283187D02*
X153857619Y-94283187D01*
X153857619Y-94283187D02*
X154095714Y-94164140D01*
X154095714Y-94164140D02*
X154214762Y-93926044D01*
X154214762Y-93926044D02*
X154214762Y-93806997D01*
X154214762Y-93806997D02*
X154095714Y-93568901D01*
X154095714Y-93568901D02*
X153857619Y-93449854D01*
X153857619Y-93449854D02*
X153500476Y-93449854D01*
X153500476Y-93449854D02*
X153262381Y-93330806D01*
X153262381Y-93330806D02*
X153143333Y-93092711D01*
X153143333Y-93092711D02*
X153143333Y-92973663D01*
X153143333Y-92973663D02*
X153262381Y-92735568D01*
X153262381Y-92735568D02*
X153500476Y-92616520D01*
X153500476Y-92616520D02*
X153857619Y-92616520D01*
X153857619Y-92616520D02*
X154095714Y-92735568D01*
X154929048Y-92616520D02*
X155881429Y-92616520D01*
X155286191Y-91783187D02*
X155286191Y-93926044D01*
X155286191Y-93926044D02*
X155405238Y-94164140D01*
X155405238Y-94164140D02*
X155643333Y-94283187D01*
X155643333Y-94283187D02*
X155881429Y-94283187D01*
X158381428Y-92616520D02*
X158976666Y-94283187D01*
X159571905Y-92616520D02*
X158976666Y-94283187D01*
X158976666Y-94283187D02*
X158738571Y-94878425D01*
X158738571Y-94878425D02*
X158619524Y-94997473D01*
X158619524Y-94997473D02*
X158381428Y-95116520D01*
X160881428Y-94283187D02*
X160643333Y-94164140D01*
X160643333Y-94164140D02*
X160524286Y-94045092D01*
X160524286Y-94045092D02*
X160405238Y-93806997D01*
X160405238Y-93806997D02*
X160405238Y-93092711D01*
X160405238Y-93092711D02*
X160524286Y-92854616D01*
X160524286Y-92854616D02*
X160643333Y-92735568D01*
X160643333Y-92735568D02*
X160881428Y-92616520D01*
X160881428Y-92616520D02*
X161238571Y-92616520D01*
X161238571Y-92616520D02*
X161476667Y-92735568D01*
X161476667Y-92735568D02*
X161595714Y-92854616D01*
X161595714Y-92854616D02*
X161714762Y-93092711D01*
X161714762Y-93092711D02*
X161714762Y-93806997D01*
X161714762Y-93806997D02*
X161595714Y-94045092D01*
X161595714Y-94045092D02*
X161476667Y-94164140D01*
X161476667Y-94164140D02*
X161238571Y-94283187D01*
X161238571Y-94283187D02*
X160881428Y-94283187D01*
X163857619Y-92616520D02*
X163857619Y-94283187D01*
X162786191Y-92616520D02*
X162786191Y-93926044D01*
X162786191Y-93926044D02*
X162905238Y-94164140D01*
X162905238Y-94164140D02*
X163143333Y-94283187D01*
X163143333Y-94283187D02*
X163500476Y-94283187D01*
X163500476Y-94283187D02*
X163738572Y-94164140D01*
X163738572Y-94164140D02*
X163857619Y-94045092D01*
X165048096Y-94283187D02*
X165048096Y-92616520D01*
X165048096Y-93092711D02*
X165167143Y-92854616D01*
X165167143Y-92854616D02*
X165286191Y-92735568D01*
X165286191Y-92735568D02*
X165524286Y-92616520D01*
X165524286Y-92616520D02*
X165762381Y-92616520D01*
X150048096Y-98308047D02*
X150048096Y-96641380D01*
X150048096Y-96879476D02*
X150167143Y-96760428D01*
X150167143Y-96760428D02*
X150405238Y-96641380D01*
X150405238Y-96641380D02*
X150762381Y-96641380D01*
X150762381Y-96641380D02*
X151000477Y-96760428D01*
X151000477Y-96760428D02*
X151119524Y-96998523D01*
X151119524Y-96998523D02*
X151119524Y-98308047D01*
X151119524Y-96998523D02*
X151238572Y-96760428D01*
X151238572Y-96760428D02*
X151476667Y-96641380D01*
X151476667Y-96641380D02*
X151833810Y-96641380D01*
X151833810Y-96641380D02*
X152071905Y-96760428D01*
X152071905Y-96760428D02*
X152190953Y-96998523D01*
X152190953Y-96998523D02*
X152190953Y-98308047D01*
X154333810Y-98189000D02*
X154095714Y-98308047D01*
X154095714Y-98308047D02*
X153619524Y-98308047D01*
X153619524Y-98308047D02*
X153381429Y-98189000D01*
X153381429Y-98189000D02*
X153262381Y-97950904D01*
X153262381Y-97950904D02*
X153262381Y-96998523D01*
X153262381Y-96998523D02*
X153381429Y-96760428D01*
X153381429Y-96760428D02*
X153619524Y-96641380D01*
X153619524Y-96641380D02*
X154095714Y-96641380D01*
X154095714Y-96641380D02*
X154333810Y-96760428D01*
X154333810Y-96760428D02*
X154452857Y-96998523D01*
X154452857Y-96998523D02*
X154452857Y-97236619D01*
X154452857Y-97236619D02*
X153262381Y-97474714D01*
X155524286Y-98308047D02*
X155524286Y-96641380D01*
X155524286Y-96879476D02*
X155643333Y-96760428D01*
X155643333Y-96760428D02*
X155881428Y-96641380D01*
X155881428Y-96641380D02*
X156238571Y-96641380D01*
X156238571Y-96641380D02*
X156476667Y-96760428D01*
X156476667Y-96760428D02*
X156595714Y-96998523D01*
X156595714Y-96998523D02*
X156595714Y-98308047D01*
X156595714Y-96998523D02*
X156714762Y-96760428D01*
X156714762Y-96760428D02*
X156952857Y-96641380D01*
X156952857Y-96641380D02*
X157310000Y-96641380D01*
X157310000Y-96641380D02*
X157548095Y-96760428D01*
X157548095Y-96760428D02*
X157667143Y-96998523D01*
X157667143Y-96998523D02*
X157667143Y-98308047D01*
X159214761Y-98308047D02*
X158976666Y-98189000D01*
X158976666Y-98189000D02*
X158857619Y-98069952D01*
X158857619Y-98069952D02*
X158738571Y-97831857D01*
X158738571Y-97831857D02*
X158738571Y-97117571D01*
X158738571Y-97117571D02*
X158857619Y-96879476D01*
X158857619Y-96879476D02*
X158976666Y-96760428D01*
X158976666Y-96760428D02*
X159214761Y-96641380D01*
X159214761Y-96641380D02*
X159571904Y-96641380D01*
X159571904Y-96641380D02*
X159810000Y-96760428D01*
X159810000Y-96760428D02*
X159929047Y-96879476D01*
X159929047Y-96879476D02*
X160048095Y-97117571D01*
X160048095Y-97117571D02*
X160048095Y-97831857D01*
X160048095Y-97831857D02*
X159929047Y-98069952D01*
X159929047Y-98069952D02*
X159810000Y-98189000D01*
X159810000Y-98189000D02*
X159571904Y-98308047D01*
X159571904Y-98308047D02*
X159214761Y-98308047D01*
X161119524Y-98308047D02*
X161119524Y-96641380D01*
X161119524Y-97117571D02*
X161238571Y-96879476D01*
X161238571Y-96879476D02*
X161357619Y-96760428D01*
X161357619Y-96760428D02*
X161595714Y-96641380D01*
X161595714Y-96641380D02*
X161833809Y-96641380D01*
X162429047Y-96641380D02*
X163024285Y-98308047D01*
X163619524Y-96641380D02*
X163024285Y-98308047D01*
X163024285Y-98308047D02*
X162786190Y-98903285D01*
X162786190Y-98903285D02*
X162667143Y-99022333D01*
X162667143Y-99022333D02*
X162429047Y-99141380D01*
X164571905Y-98069952D02*
X164690952Y-98189000D01*
X164690952Y-98189000D02*
X164571905Y-98308047D01*
X164571905Y-98308047D02*
X164452857Y-98189000D01*
X164452857Y-98189000D02*
X164571905Y-98069952D01*
X164571905Y-98069952D02*
X164571905Y-98308047D01*
X164571905Y-97355666D02*
X164452857Y-95927095D01*
X164452857Y-95927095D02*
X164571905Y-95808047D01*
X164571905Y-95808047D02*
X164690952Y-95927095D01*
X164690952Y-95927095D02*
X164571905Y-97355666D01*
X164571905Y-97355666D02*
X164571905Y-95808047D01*
D13*
%TO.C,SW2*%
X109595000Y-126015000D02*
X123565000Y-126015000D01*
X109595000Y-139985000D02*
X109595000Y-126015000D01*
X123565000Y-126015000D02*
X123565000Y-139985000D01*
X123565000Y-139985000D02*
X109595000Y-139985000D01*
D14*
%TO.C,D1*%
X92270000Y-111434000D02*
X92270000Y-114566000D01*
X92270000Y-111434000D02*
G75*
G02*
X92270000Y-114566000I2506124J-1566000D01*
G01*
D11*
X91670000Y-113000000D02*
G75*
G02*
X91470000Y-113000000I-100000J0D01*
G01*
X91470000Y-113000000D02*
G75*
G02*
X91670000Y-113000000I100000J0D01*
G01*
D14*
%TO.C,D4*%
X157500000Y-111434000D02*
X157500000Y-114566000D01*
X157500000Y-111434000D02*
G75*
G02*
X157500000Y-114566000I2506124J-1566000D01*
G01*
D11*
X156900000Y-113000000D02*
G75*
G02*
X156700000Y-113000000I-100000J0D01*
G01*
X156700000Y-113000000D02*
G75*
G02*
X156900000Y-113000000I100000J0D01*
G01*
D14*
%TO.C,D3*%
X136770000Y-111434000D02*
X136770000Y-114566000D01*
X136770000Y-111434000D02*
G75*
G02*
X136770000Y-114566000I2506124J-1566000D01*
G01*
D11*
X136170000Y-113000000D02*
G75*
G02*
X135970000Y-113000000I-100000J0D01*
G01*
X135970000Y-113000000D02*
G75*
G02*
X136170000Y-113000000I100000J0D01*
G01*
D13*
%TO.C,SW3*%
X131325000Y-126055000D02*
X145295000Y-126055000D01*
X131325000Y-140025000D02*
X131325000Y-126055000D01*
X145295000Y-126055000D02*
X145295000Y-140025000D01*
X145295000Y-140025000D02*
X131325000Y-140025000D01*
D14*
%TO.C,D2*%
X113770000Y-111434000D02*
X113770000Y-114566000D01*
X113770000Y-111434000D02*
G75*
G02*
X113770000Y-114566000I2506124J-1566000D01*
G01*
D11*
X113170000Y-113000000D02*
G75*
G02*
X112970000Y-113000000I-100000J0D01*
G01*
X112970000Y-113000000D02*
G75*
G02*
X113170000Y-113000000I100000J0D01*
G01*
D13*
%TO.C,SW4*%
X154095000Y-126015000D02*
X168065000Y-126015000D01*
X154095000Y-139985000D02*
X154095000Y-126015000D01*
X168065000Y-126015000D02*
X168065000Y-139985000D01*
X168065000Y-139985000D02*
X154095000Y-139985000D01*
%TO.C,SW1*%
X87595000Y-126015000D02*
X101565000Y-126015000D01*
X87595000Y-139985000D02*
X87595000Y-126015000D01*
X101565000Y-126015000D02*
X101565000Y-139985000D01*
X101565000Y-139985000D02*
X87595000Y-139985000D01*
%TD*%
M02*
