M48
; DRILL file {KiCad 9.0.2} date 2025-07-01T17:28:49-0700
; FORMAT={-:-/ absolute / metric / decimal}
; #@! TF.CreationDate,2025-07-01T17:28:49-07:00
; #@! TF.GenerationSoftware,Kicad,Pcbnew,9.0.2
; #@! TF.FileFunction,Plated,1,2,PTH
FMAT,2
METRIC
; #@! TA.AperFunction,Plated,PTH,ViaDrill
T1C0.300
; #@! TA.AperFunction,Plated,PTH,ComponentDrill
T2C0.700
; #@! TA.AperFunction,Plated,PTH,ComponentDrill
T3C0.889
; #@! TA.AperFunction,Plated,PTH,ComponentDrill
T4C1.210
; #@! TA.AperFunction,Plated,PTH,ComponentDrill
T5C1.500
%
G90
G05
T1
X84.89Y-118.39
X93.51Y-118.39
X112.78Y-118.39
X115.0Y-118.39
X128.52Y-118.39
X138.1Y-118.39
X153.4Y-118.39
X158.8Y-118.39
X170.71Y-118.39
T2
X101.0Y-108.0
X101.0Y-113.08
X122.5Y-107.92
X122.5Y-113.0
X145.0Y-107.96
X145.0Y-113.04
X166.93Y-110.08
X166.93Y-115.16
T3
X119.96Y-87.56
X119.96Y-102.8
X122.5Y-87.56
X122.5Y-102.8
X125.04Y-87.56
X125.04Y-102.8
X127.58Y-87.56
X127.58Y-102.8
X130.12Y-87.56
X130.12Y-102.8
X132.66Y-87.56
X132.66Y-102.8
X135.2Y-87.56
X135.2Y-102.8
T4
X93.5Y-113.0
X96.04Y-113.0
X115.0Y-113.0
X117.54Y-113.0
X138.0Y-113.0
X140.54Y-113.0
X158.73Y-113.0
X161.27Y-113.0
T5
X90.77Y-130.46
X97.12Y-127.92
X112.77Y-130.46
X119.12Y-127.92
X134.5Y-130.5
X140.85Y-127.96
X157.27Y-130.46
X163.62Y-127.92
M30
